<mxfile host="Electron" modified="2023-04-29T20:39:07.833Z" agent="Mozilla/5.0 (X11; Linux x86_64) AppleWebKit/537.36 (KHTML, like Gecko) draw.io/21.2.1 Chrome/112.0.5615.87 Electron/24.1.2 Safari/537.36" etag="VQQKMhlvz3HXbo81RE7o" version="21.2.1" type="device">
  <diagram name="Page-1" id="rJoH1bT_W45eB3k0jzVq">
    <mxGraphModel dx="1434" dy="875" grid="1" gridSize="10" guides="1" tooltips="1" connect="1" arrows="1" fold="1" page="1" pageScale="1" pageWidth="850" pageHeight="1100" math="0" shadow="0">
      <root>
        <mxCell id="0" />
        <mxCell id="1" parent="0" />
        <mxCell id="kKXlO9U8WTmUJUSVAkkL-1" value="Type" style="rounded=0;whiteSpace=wrap;html=1;fillColor=#f5f5f5;gradientColor=#b3b3b3;strokeColor=#666666;fontStyle=1" vertex="1" parent="1">
          <mxGeometry x="80" y="120" width="80" height="40" as="geometry" />
        </mxCell>
        <mxCell id="kKXlO9U8WTmUJUSVAkkL-2" value="PUSH DATA" style="rounded=0;whiteSpace=wrap;html=1;fillColor=#fff2cc;strokeColor=#d6b656;fontStyle=1" vertex="1" parent="1">
          <mxGeometry x="80" y="160" width="80" height="40" as="geometry" />
        </mxCell>
        <mxCell id="kKXlO9U8WTmUJUSVAkkL-3" value="PUSH ACK" style="rounded=0;whiteSpace=wrap;html=1;fillColor=#fff2cc;strokeColor=#d6b656;fontStyle=1" vertex="1" parent="1">
          <mxGeometry x="80" y="200" width="80" height="40" as="geometry" />
        </mxCell>
        <mxCell id="kKXlO9U8WTmUJUSVAkkL-4" value="PULL DATA" style="rounded=0;whiteSpace=wrap;html=1;fillColor=#dae8fc;strokeColor=#6c8ebf;fontStyle=1" vertex="1" parent="1">
          <mxGeometry x="80" y="240" width="80" height="40" as="geometry" />
        </mxCell>
        <mxCell id="kKXlO9U8WTmUJUSVAkkL-5" value="PULL ACK" style="rounded=0;whiteSpace=wrap;html=1;fillColor=#dae8fc;strokeColor=#6c8ebf;fontStyle=1" vertex="1" parent="1">
          <mxGeometry x="80" y="280" width="80" height="40" as="geometry" />
        </mxCell>
        <mxCell id="kKXlO9U8WTmUJUSVAkkL-6" value="PULL RESP" style="rounded=0;whiteSpace=wrap;html=1;fillColor=#d5e8d4;strokeColor=#82b366;fontStyle=1" vertex="1" parent="1">
          <mxGeometry x="80" y="320" width="80" height="40" as="geometry" />
        </mxCell>
        <mxCell id="kKXlO9U8WTmUJUSVAkkL-7" value="TX ACK" style="rounded=0;whiteSpace=wrap;html=1;fillColor=#d5e8d4;strokeColor=#82b366;fontStyle=1" vertex="1" parent="1">
          <mxGeometry x="80" y="360" width="80" height="40" as="geometry" />
        </mxCell>
        <mxCell id="kKXlO9U8WTmUJUSVAkkL-9" value="From : &lt;br&gt;(UDP Port)" style="rounded=0;whiteSpace=wrap;html=1;fillColor=#f5f5f5;gradientColor=#b3b3b3;strokeColor=#666666;fontStyle=1" vertex="1" parent="1">
          <mxGeometry x="400" y="120" width="80" height="40" as="geometry" />
        </mxCell>
        <mxCell id="kKXlO9U8WTmUJUSVAkkL-10" value="To :&lt;br&gt;(UDP Port)" style="rounded=0;whiteSpace=wrap;html=1;fillColor=#f5f5f5;gradientColor=#b3b3b3;strokeColor=#666666;fontStyle=1" vertex="1" parent="1">
          <mxGeometry x="480" y="120" width="80" height="40" as="geometry" />
        </mxCell>
        <mxCell id="kKXlO9U8WTmUJUSVAkkL-11" value="56300" style="rounded=0;whiteSpace=wrap;html=1;fillColor=#fff2cc;gradientColor=#ffd966;strokeColor=#d6b656;" vertex="1" parent="1">
          <mxGeometry x="400" y="160" width="80" height="40" as="geometry" />
        </mxCell>
        <mxCell id="kKXlO9U8WTmUJUSVAkkL-12" value="1700" style="rounded=0;whiteSpace=wrap;html=1;fillColor=#d5e8d4;gradientColor=#97d077;strokeColor=#82b366;" vertex="1" parent="1">
          <mxGeometry x="480" y="160" width="80" height="40" as="geometry" />
        </mxCell>
        <mxCell id="kKXlO9U8WTmUJUSVAkkL-13" value="1700" style="rounded=0;whiteSpace=wrap;html=1;fillColor=#d5e8d4;gradientColor=#97d077;strokeColor=#82b366;" vertex="1" parent="1">
          <mxGeometry x="400" y="200" width="80" height="40" as="geometry" />
        </mxCell>
        <mxCell id="kKXlO9U8WTmUJUSVAkkL-14" value="56300" style="rounded=0;whiteSpace=wrap;html=1;fillColor=#fff2cc;gradientColor=#ffd966;strokeColor=#d6b656;" vertex="1" parent="1">
          <mxGeometry x="400" y="240" width="80" height="40" as="geometry" />
        </mxCell>
        <mxCell id="kKXlO9U8WTmUJUSVAkkL-15" value="1700" style="rounded=0;whiteSpace=wrap;html=1;fillColor=#d5e8d4;gradientColor=#97d077;strokeColor=#82b366;" vertex="1" parent="1">
          <mxGeometry x="400" y="280" width="80" height="40" as="geometry" />
        </mxCell>
        <mxCell id="kKXlO9U8WTmUJUSVAkkL-16" value="1700" style="rounded=0;whiteSpace=wrap;html=1;fillColor=#d5e8d4;gradientColor=#97d077;strokeColor=#82b366;" vertex="1" parent="1">
          <mxGeometry x="400" y="320" width="80" height="40" as="geometry" />
        </mxCell>
        <mxCell id="kKXlO9U8WTmUJUSVAkkL-17" value="56300" style="rounded=0;whiteSpace=wrap;html=1;fillColor=#fff2cc;gradientColor=#ffd966;strokeColor=#d6b656;" vertex="1" parent="1">
          <mxGeometry x="400" y="360" width="80" height="40" as="geometry" />
        </mxCell>
        <mxCell id="kKXlO9U8WTmUJUSVAkkL-18" value="56300" style="rounded=0;whiteSpace=wrap;html=1;fillColor=#fff2cc;gradientColor=#ffd966;strokeColor=#d6b656;" vertex="1" parent="1">
          <mxGeometry x="480" y="200" width="80" height="40" as="geometry" />
        </mxCell>
        <mxCell id="kKXlO9U8WTmUJUSVAkkL-19" value="1700" style="rounded=0;whiteSpace=wrap;html=1;fillColor=#d5e8d4;gradientColor=#97d077;strokeColor=#82b366;" vertex="1" parent="1">
          <mxGeometry x="480" y="240" width="80" height="40" as="geometry" />
        </mxCell>
        <mxCell id="kKXlO9U8WTmUJUSVAkkL-20" value="56300" style="rounded=0;whiteSpace=wrap;html=1;fillColor=#fff2cc;gradientColor=#ffd966;strokeColor=#d6b656;" vertex="1" parent="1">
          <mxGeometry x="480" y="280" width="80" height="40" as="geometry" />
        </mxCell>
        <mxCell id="kKXlO9U8WTmUJUSVAkkL-21" value="56300" style="rounded=0;whiteSpace=wrap;html=1;fillColor=#fff2cc;gradientColor=#ffd966;strokeColor=#d6b656;" vertex="1" parent="1">
          <mxGeometry x="480" y="320" width="80" height="40" as="geometry" />
        </mxCell>
        <mxCell id="kKXlO9U8WTmUJUSVAkkL-22" value="1700" style="rounded=0;whiteSpace=wrap;html=1;fillColor=#d5e8d4;gradientColor=#97d077;strokeColor=#82b366;" vertex="1" parent="1">
          <mxGeometry x="480" y="360" width="80" height="40" as="geometry" />
        </mxCell>
        <mxCell id="kKXlO9U8WTmUJUSVAkkL-23" value="Gateway ---&amp;gt; Server" style="rounded=0;whiteSpace=wrap;html=1;" vertex="1" parent="1">
          <mxGeometry x="240" y="160" width="160" height="40" as="geometry" />
        </mxCell>
        <mxCell id="kKXlO9U8WTmUJUSVAkkL-24" value="Gateway ---&amp;gt; Server" style="rounded=0;whiteSpace=wrap;html=1;" vertex="1" parent="1">
          <mxGeometry x="240" y="240" width="160" height="40" as="geometry" />
        </mxCell>
        <mxCell id="kKXlO9U8WTmUJUSVAkkL-25" value="Gateway ---&amp;gt; Server" style="rounded=0;whiteSpace=wrap;html=1;" vertex="1" parent="1">
          <mxGeometry x="240" y="360" width="160" height="40" as="geometry" />
        </mxCell>
        <mxCell id="kKXlO9U8WTmUJUSVAkkL-26" value="Server ---&amp;gt; Gateway" style="rounded=0;whiteSpace=wrap;html=1;" vertex="1" parent="1">
          <mxGeometry x="240" y="200" width="160" height="40" as="geometry" />
        </mxCell>
        <mxCell id="kKXlO9U8WTmUJUSVAkkL-27" value="Server ---&amp;gt; Gateway" style="rounded=0;whiteSpace=wrap;html=1;" vertex="1" parent="1">
          <mxGeometry x="240" y="280" width="160" height="40" as="geometry" />
        </mxCell>
        <mxCell id="kKXlO9U8WTmUJUSVAkkL-28" value="Server ---&amp;gt; Gateway" style="rounded=0;whiteSpace=wrap;html=1;" vertex="1" parent="1">
          <mxGeometry x="240" y="320" width="160" height="40" as="geometry" />
        </mxCell>
        <mxCell id="kKXlO9U8WTmUJUSVAkkL-29" value="Upstream" style="rounded=0;whiteSpace=wrap;html=1;fillColor=#fff2cc;strokeColor=#d6b656;gradientColor=#ffd966;" vertex="1" parent="1">
          <mxGeometry x="160" y="160" width="80" height="40" as="geometry" />
        </mxCell>
        <mxCell id="kKXlO9U8WTmUJUSVAkkL-30" value="Upstream" style="rounded=0;whiteSpace=wrap;html=1;fillColor=#fff2cc;gradientColor=#ffd966;strokeColor=#d6b656;" vertex="1" parent="1">
          <mxGeometry x="160" y="240" width="80" height="40" as="geometry" />
        </mxCell>
        <mxCell id="kKXlO9U8WTmUJUSVAkkL-31" value="Upstream" style="rounded=0;whiteSpace=wrap;html=1;fillColor=#fff2cc;gradientColor=#ffd966;strokeColor=#d6b656;" vertex="1" parent="1">
          <mxGeometry x="160" y="360" width="80" height="40" as="geometry" />
        </mxCell>
        <mxCell id="kKXlO9U8WTmUJUSVAkkL-32" value="Downstream" style="rounded=0;whiteSpace=wrap;html=1;fillColor=#f8cecc;gradientColor=#ea6b66;strokeColor=#b85450;" vertex="1" parent="1">
          <mxGeometry x="160" y="320" width="80" height="40" as="geometry" />
        </mxCell>
        <mxCell id="kKXlO9U8WTmUJUSVAkkL-33" value="Downstream" style="rounded=0;whiteSpace=wrap;html=1;fillColor=#f8cecc;gradientColor=#ea6b66;strokeColor=#b85450;" vertex="1" parent="1">
          <mxGeometry x="160" y="280" width="80" height="40" as="geometry" />
        </mxCell>
        <mxCell id="kKXlO9U8WTmUJUSVAkkL-34" value="Downstream" style="rounded=0;whiteSpace=wrap;html=1;fillColor=#f8cecc;gradientColor=#ea6b66;strokeColor=#b85450;" vertex="1" parent="1">
          <mxGeometry x="160" y="200" width="80" height="40" as="geometry" />
        </mxCell>
        <mxCell id="kKXlO9U8WTmUJUSVAkkL-36" value="Information" style="rounded=0;whiteSpace=wrap;html=1;fillColor=#f5f5f5;gradientColor=#b3b3b3;strokeColor=#666666;fontStyle=1" vertex="1" parent="1">
          <mxGeometry x="240" y="120" width="160" height="40" as="geometry" />
        </mxCell>
        <mxCell id="kKXlO9U8WTmUJUSVAkkL-38" value="Direction" style="rounded=0;whiteSpace=wrap;html=1;fillColor=#f5f5f5;gradientColor=#b3b3b3;strokeColor=#666666;fontStyle=1" vertex="1" parent="1">
          <mxGeometry x="160" y="120" width="80" height="40" as="geometry" />
        </mxCell>
      </root>
    </mxGraphModel>
  </diagram>
</mxfile>
